<svg width="26" height="26" viewBox="0 0 26 26" fill="none" xmlns="http://www.w3.org/2000/svg">
<path d="M15.0203 13.3034L24.9417 3.38198C25.1377 3.15303 25.2402 2.85853 25.2286 2.55732C25.2169 2.25612 25.0921 1.9704 24.8789 1.75726C24.6658 1.54411 24.3801 1.41925 24.0789 1.40762C23.7777 1.39598 23.4831 1.49843 23.2542 1.6945L13.3328 11.6159L3.41141 1.68253C3.18605 1.45717 2.8804 1.33057 2.56169 1.33057C2.24298 1.33057 1.93733 1.45717 1.71197 1.68253C1.48661 1.90789 1.36 2.21355 1.36 2.53225C1.36 2.85096 1.48661 3.15662 1.71197 3.38198L11.6453 13.3034L1.71197 23.2248C1.58669 23.3321 1.48494 23.4641 1.4131 23.6126C1.34127 23.761 1.3009 23.9228 1.29453 24.0876C1.28817 24.2524 1.31594 24.4168 1.37611 24.5703C1.43627 24.7239 1.52754 24.8634 1.64417 24.98C1.76081 25.0967 1.90029 25.1879 2.05387 25.2481C2.20744 25.3083 2.3718 25.336 2.53662 25.3297C2.70144 25.3233 2.86317 25.2829 3.01165 25.2111C3.16013 25.1393 3.29216 25.0375 3.39945 24.9122L13.3328 14.9908L23.2542 24.9122C23.4831 25.1083 23.7777 25.2108 24.0789 25.1991C24.3801 25.1875 24.6658 25.0626 24.8789 24.8495C25.0921 24.6363 25.2169 24.3506 25.2286 24.0494C25.2402 23.7482 25.1377 23.4537 24.9417 23.2248L15.0203 13.3034Z" fill="white" stroke="white"/>
</svg>
