<svg width="20" height="20" viewBox="0 0 20 20" fill="none" xmlns="http://www.w3.org/2000/svg">
<path d="M9.883 1.007L10 1C10.2449 1.00003 10.4813 1.08996 10.6644 1.25272C10.8474 1.41547 10.9643 1.63975 10.993 1.883L11 2V9H18C18.2449 9.00003 18.4813 9.08996 18.6644 9.25272C18.8474 9.41547 18.9643 9.63975 18.993 9.883L19 10C19 10.2449 18.91 10.4813 18.7473 10.6644C18.5845 10.8474 18.3603 10.9643 18.117 10.993L18 11H11V18C11 18.2449 10.91 18.4813 10.7473 18.6644C10.5845 18.8474 10.3603 18.9643 10.117 18.993L10 19C9.75507 19 9.51866 18.91 9.33563 18.7473C9.15259 18.5845 9.03566 18.3603 9.007 18.117L9 18V11H2C1.75507 11 1.51866 10.91 1.33563 10.7473C1.15259 10.5845 1.03566 10.3603 1.007 10.117L1 10C1.00003 9.75507 1.08996 9.51866 1.25272 9.33563C1.41547 9.15259 1.63975 9.03566 1.883 9.007L2 9H9V2C9.00003 1.75507 9.08996 1.51866 9.25272 1.33563C9.41547 1.15259 9.63975 1.03566 9.883 1.007L10 1L9.883 1.007Z" fill="white" stroke="white" stroke-width="0.5"/>
</svg>
