<svg width="21" height="36" viewBox="0 0 21 36" fill="none" xmlns="http://www.w3.org/2000/svg">
<path d="M0.686381 0.658273C0.264889 1.07989 0.0281078 1.65165 0.0281078 2.24782C0.0281078 2.84399 0.264889 3.41575 0.686381 3.83737L14.835 17.9859L0.686381 32.1345C0.471645 32.3419 0.300363 32.59 0.182532 32.8643C0.0647003 33.1386 0.00267902 33.4336 8.48878e-05 33.7322C-0.00250924 34.0307 0.0543773 34.3267 0.167424 34.603C0.280471 34.8794 0.447414 35.1304 0.658513 35.3415C0.869613 35.5526 1.12064 35.7195 1.39695 35.8326C1.67326 35.9456 1.96931 36.0025 2.26784 35.9999C2.56637 35.9973 2.86139 35.9353 3.13569 35.8175C3.40999 35.6996 3.65808 35.5284 3.86548 35.3136L19.6036 19.5755C20.0251 19.1539 20.2619 18.5821 20.2619 17.9859C20.2619 17.3898 20.0251 16.818 19.6036 16.3964L3.86548 0.658273C3.44386 0.236781 2.8721 0 2.27593 0C1.67976 0 1.108 0.236781 0.686381 0.658273V0.658273Z" fill="white"/>
</svg>
